<svg width="316" height="146" viewBox="0 0 316 146" fill="none" xmlns="http://www.w3.org/2000/svg">
<circle opacity="0.35" cx="55.3105" cy="73.2861" r="54.3379" fill="black"/>
<circle cx="55.3104" cy="73.286" r="43.6688" fill="white"/>
<path d="M53.5339 57.1549C54.2774 55.7097 56.3435 55.7097 57.0869 57.1549L70.6607 83.5406C71.528 85.2265 69.7789 87.0593 68.0543 86.2717L56.1404 80.8305C55.6133 80.5898 55.0076 80.5898 54.4805 80.8305L42.5666 86.2717C40.8419 87.0593 39.0928 85.2265 39.9601 83.5406L53.5339 57.1549Z" fill="url(#paint0_linear_109_420)"/>
<path d="M309.426 75.6345C310.078 75.2154 311.848 74.61 312.22 73.9581C311.894 73.865 311.242 74.0047 310.916 74.0512C310.358 74.0978 309.799 74.1444 309.24 74.1444C308.262 74.1909 307.284 74.2375 306.306 74.2841C304.77 74.2841 303.28 74.1909 301.743 74.1444C300.066 74.0978 298.343 73.9581 296.667 73.865C295.643 73.8184 294.618 73.7718 293.594 73.7253C293.035 73.6787 291.452 73.8184 291.079 73.3062C290.66 72.7474 291.265 72.7008 291.684 72.7008C292.569 72.6542 293.454 72.7008 294.339 72.7008C296.201 72.7008 298.017 72.7008 299.88 72.6542C301.696 72.6077 303.512 72.6077 305.328 72.6077C307.051 72.6077 309.194 72.7939 310.87 72.3748C310.684 72.0489 309.892 71.7694 309.566 71.5832C309.054 71.2572 308.495 70.9778 307.983 70.6518C307.61 70.419 307.051 69.9999 307.238 69.4877C307.377 69.1151 307.936 69.022 308.309 69.1151C309.24 69.348 310.265 70.2793 311.103 70.745C312.127 71.3038 313.105 71.816 314.13 72.3283C314.782 72.6542 315.48 73.213 314.921 73.9115C314.456 74.5169 313.152 74.936 312.5 75.262C311.615 75.7276 310.637 76.0536 309.752 76.4727C308.588 76.9384 308.774 76.333 309.426 75.6345C309.566 75.5414 309.24 75.8208 309.426 75.6345Z" fill="#666666"/>
<path d="M205.504 75.635C204.852 75.2159 203.083 74.6105 202.71 73.9586C203.036 73.8655 203.688 74.0052 204.014 74.0517C204.573 74.0983 205.132 74.1449 205.691 74.1449C206.668 74.1914 207.646 74.238 208.624 74.2846C210.161 74.2846 211.651 74.1914 213.188 74.1449C214.864 74.0983 216.587 73.9586 218.264 73.8655C219.288 73.8189 220.313 73.7723 221.337 73.7258C221.896 73.6792 223.479 73.8189 223.852 73.3067C224.271 72.7478 223.665 72.7013 223.246 72.7013C222.362 72.6547 221.477 72.7013 220.592 72.7013C218.729 72.7013 216.913 72.7013 215.051 72.6547C213.234 72.6081 211.418 72.6081 209.602 72.6081C207.879 72.6081 205.737 72.7944 204.061 72.3753C204.247 72.0493 205.039 71.7699 205.365 71.5837C205.877 71.2577 206.436 70.9783 206.948 70.6523C207.32 70.4195 207.879 70.0004 207.693 69.4882C207.553 69.1156 206.994 69.0225 206.622 69.1156C205.691 69.3485 204.666 70.2798 203.828 70.7455C202.803 71.3043 201.826 71.8165 200.801 72.3287C200.149 72.6547 199.451 73.2135 200.009 73.912C200.475 74.5174 201.779 74.9365 202.431 75.2625C203.316 75.7281 204.294 76.0541 205.178 76.4732C206.343 76.9389 206.156 76.3335 205.504 75.635C205.365 75.5419 205.691 75.8213 205.504 75.635Z" fill="#666666"/>
<path d="M261.403 138.084C260.983 138.736 260.378 140.505 259.726 140.878C259.633 140.552 259.773 139.9 259.819 139.574C259.866 139.015 259.912 138.456 259.912 137.897C259.959 136.919 260.006 135.941 260.052 134.964C260.052 133.427 259.959 131.937 259.912 130.4C259.866 128.724 259.726 127.001 259.633 125.324C259.586 124.3 259.54 123.275 259.493 122.251C259.447 121.692 259.586 120.109 259.074 119.736C258.515 119.317 258.469 119.922 258.469 120.342C258.422 121.226 258.469 122.111 258.469 122.996C258.469 124.859 258.469 126.675 258.422 128.537C258.376 130.353 258.376 132.17 258.376 133.986C258.376 135.709 258.562 137.851 258.143 139.527C257.817 139.341 257.538 138.549 257.351 138.223C257.025 137.711 256.746 137.152 256.42 136.64C256.187 136.267 255.768 135.709 255.256 135.895C254.883 136.035 254.79 136.593 254.883 136.966C255.116 137.897 256.047 138.922 256.513 139.76C257.072 140.784 257.584 141.762 258.096 142.787C258.422 143.439 258.981 144.137 259.68 143.578C260.285 143.113 260.704 141.809 261.03 141.157C261.496 140.272 261.822 139.294 262.241 138.41C262.706 137.245 262.101 137.432 261.403 138.084C261.309 138.223 261.589 137.897 261.403 138.084Z" fill="#666666"/>
<path d="M261.403 8.48821C260.983 7.83627 260.378 6.06672 259.726 5.69419C259.633 6.02016 259.773 6.67209 259.819 6.99806C259.866 7.55686 259.912 8.11567 259.912 8.67447C259.959 9.65238 260.006 10.6303 260.052 11.6082C260.052 13.1449 259.959 14.635 259.912 16.1718C259.866 17.8482 259.726 19.5711 259.633 21.2475C259.586 22.272 259.54 23.2965 259.493 24.321C259.447 24.8798 259.586 26.463 259.074 26.8356C258.515 27.2547 258.469 26.6493 258.469 26.2302C258.422 25.3454 258.469 24.4607 258.469 23.5759C258.469 21.7132 258.469 19.8971 258.422 18.0344C258.376 16.2183 258.376 14.4022 258.376 12.5861C258.376 10.8631 258.562 8.72104 258.143 7.04463C257.817 7.2309 257.538 8.02253 257.351 8.3485C257.025 8.86073 256.746 9.41953 256.42 9.93177C256.187 10.3043 255.768 10.8631 255.256 10.6768C254.883 10.5371 254.79 9.97835 254.883 9.60581C255.116 8.67447 256.047 7.65 256.513 6.81179C257.072 5.78732 257.584 4.80941 258.096 3.78494C258.422 3.133 258.981 2.43449 259.68 2.9933C260.285 3.45897 260.704 4.76285 261.03 5.41479C261.496 6.29956 261.822 7.27746 262.241 8.16223C262.706 9.32641 262.101 9.14014 261.403 8.48821C261.309 8.3485 261.589 8.67447 261.403 8.48821Z" fill="#666666"/>
<path opacity="0.4" d="M242.533 107.057C242.307 84.2118 239.291 67.5492 234.767 54.8071C234.541 55.5611 234.39 56.3151 234.239 57.069L234.164 57.3706C234.164 57.5968 234.089 57.823 234.089 57.9738C234.089 58.2 234.013 58.3508 234.013 58.5016V58.7278C234.013 58.8785 234.013 59.1047 233.938 59.2555V59.6325V86.9261C233.862 94.3149 237.255 102.609 242.533 107.057Z" fill="#5B5B5B"/>
<path opacity="0.4" d="M282.041 60.3113V59.9343C282.041 59.7081 282.041 59.4065 281.965 59.1803C281.965 59.0295 281.965 58.8787 281.89 58.728C281.89 58.5018 281.815 58.2002 281.815 57.974V57.8986C281.815 57.6724 281.739 57.5216 281.739 57.2954C281.739 57.22 281.739 57.0692 281.664 56.9938C281.513 56.2399 281.362 55.4859 281.136 54.8073V54.7319C276.612 67.474 273.596 84.1366 273.37 106.982C278.648 102.533 282.041 94.3152 282.041 86.8509V61.2914C282.041 60.9898 282.041 60.6129 282.041 60.3113Z" fill="#5B5B5B"/>
<path opacity="0.4" d="M274.35 43.7246C273.295 42.7445 272.164 41.9151 271.033 41.0857L270.882 40.935C270.656 40.7842 270.354 40.6334 270.128 40.4826L269.826 40.3318C269.6 40.181 269.374 40.1056 269.072 39.9548L268.771 39.804L268.092 39.427L267.715 39.2762C267.489 39.2008 267.263 39.05 267.037 38.9746L266.886 38.8992L266.584 38.8238L265.981 38.5977L265.755 38.5223L265.378 38.3715L264.85 38.2207L264.624 38.1453L264.247 38.0699C264.021 37.9945 263.87 37.9945 263.644 37.9191L263.418 37.8437L263.041 37.7683L262.438 37.6175H262.287L261.834 37.5421L261.156 37.4667H261.08L260.628 37.3913L259.799 37.3159H259.723H259.346H258.743V43.5738C260.251 43.8754 261.533 45.0818 261.533 46.5897V59.0301C261.533 60.5381 260.176 61.7444 258.743 62.046V66.042C267.866 65.665 275.104 57.5976 275.104 47.7206V44.554C274.803 44.2524 274.576 44.0262 274.35 43.7246Z" fill="#5B5B5B"/>
<path d="M254.447 59.1048V46.6644C254.447 45.1565 255.804 43.9501 257.237 43.6485V37.3906H256.634H256.257L255.428 37.466L254.975 37.5414H254.9L254.221 37.6168L253.769 37.6922H253.618L253.015 37.843L252.638 37.9184L252.412 37.9938L251.733 38.1446L251.356 38.22L251.13 38.2954L250.602 38.4462L250.225 38.597L249.999 38.6724L249.396 38.8986L249.094 38.974L248.943 39.0493L248.265 39.3509L247.888 39.5017L247.209 39.8787L246.832 40.0295C246.606 40.1803 246.38 40.2557 246.154 40.4065L245.852 40.5573C245.626 40.7081 245.324 40.8589 245.098 41.0097L244.947 41.1605C243.741 41.9144 242.61 42.8192 241.555 43.7239C241.328 44.0255 241.102 44.2517 240.876 44.5533V47.72C240.876 57.5969 248.189 65.6643 257.312 66.0413V62.0453C255.804 61.8191 254.447 60.6128 254.447 59.1048Z" fill="#BEBEBE"/>
<path d="M255.502 47.3431V58.351C255.502 59.7081 256.633 60.8391 257.99 60.8391C259.347 60.8391 260.478 59.7081 260.478 58.351V47.3431C260.478 45.9859 259.347 44.855 257.99 44.855C256.633 44.855 255.502 45.9859 255.502 47.3431Z" fill="white"/>
<path opacity="0.65" d="M280.457 52.7724C279.854 51.1891 279.1 49.6812 278.12 48.2486C277.969 47.947 277.743 47.7209 277.592 47.4193C277.592 47.4193 277.592 47.4193 277.592 47.3439C277.366 47.0423 277.215 46.8161 276.989 46.5899C276.989 46.5899 276.989 46.5899 276.989 46.5145C276.838 46.2883 276.612 46.0621 276.385 45.8359L276.31 45.9113V47.7963C276.31 58.3518 268.62 66.947 258.743 67.324C258.215 67.324 257.763 67.324 257.31 67.324C247.433 66.8716 239.743 58.3518 239.743 47.7963V45.9113L239.667 45.8359C239.441 46.0621 239.29 46.2883 239.064 46.5145C239.064 46.5145 239.064 46.5145 239.064 46.5899C238.838 46.8161 238.687 47.1177 238.461 47.3439C238.461 47.3439 238.461 47.3439 238.461 47.4193C238.235 47.7209 238.084 47.947 237.933 48.2486C237.028 49.6812 236.274 51.1891 235.596 52.7724C235.596 52.8478 235.596 52.8478 235.521 52.9232L236.048 54.4312C240.723 67.6256 243.663 84.7406 243.89 107.058V108.038C247.886 110.903 252.786 112.637 258.064 112.637C263.342 112.637 268.243 110.903 272.239 108.038V107.058C272.465 84.6652 275.405 67.5502 280.08 54.4312L280.608 52.9232C280.457 52.8478 280.457 52.7724 280.457 52.7724Z" fill="#5B5B5B"/>
<path opacity="0.15" d="M155.727 0.634277V145.938" stroke="black" stroke-width="2" stroke-dasharray="3 3"/>
<defs>
<linearGradient id="paint0_linear_109_420" x1="37.6038" y1="83.8961" x2="67.9647" y2="71.3321" gradientUnits="userSpaceOnUse">
<stop stop-color="#4434DD"/>
<stop offset="1" stop-color="#8076EE"/>
</linearGradient>
</defs>
</svg>
