<svg width="35" height="35" viewBox="0 0 35 35" fill="none" xmlns="http://www.w3.org/2000/svg">
<rect x="0.676758" y="0.223633" width="34.2537" height="34.2537" rx="7.82942" fill="#ECECEC"/>
<path d="M24.6415 11.2129C24.6415 10.8262 24.3281 10.5128 23.9414 10.5128L17.6406 10.5128C17.2539 10.5128 16.9405 10.8262 16.9405 11.2129C16.9405 11.5995 17.2539 11.913 17.6406 11.913L23.2413 11.913L23.2413 17.5137C23.2413 17.9004 23.5548 18.2138 23.9414 18.2138C24.3281 18.2138 24.6415 17.9004 24.6415 17.5137L24.6415 11.2129ZM18.4008 15.7634C18.1274 16.0368 18.1274 16.4801 18.4008 16.7535C18.6742 17.0269 19.1175 17.0269 19.3909 16.7535L18.4008 15.7634ZM23.4464 10.7179L18.4008 15.7634L19.3909 16.7535L24.4364 11.7079L23.4464 10.7179Z" fill="black"/>
<path d="M17.0319 19.1122C17.3053 18.8388 17.3053 18.3956 17.0319 18.1221C16.7585 17.8487 16.3152 17.8487 16.0418 18.1221L17.0319 19.1122ZM10.9663 23.4876C10.9663 23.8743 11.2798 24.1877 11.6664 24.1877L17.9672 24.1877C18.3539 24.1877 18.6673 23.8743 18.6673 23.4876C18.6673 23.101 18.3539 22.7875 17.9672 22.7875L12.3665 22.7875L12.3665 17.1868C12.3665 16.8002 12.0531 16.4867 11.6664 16.4867C11.2798 16.4867 10.9663 16.8002 10.9663 17.1868L10.9663 23.4876ZM16.0418 18.1221L11.1714 22.9926L12.1615 23.9827L17.0319 19.1122L16.0418 18.1221Z" fill="black"/>
</svg>
