<svg width="229" height="134" viewBox="0 0 229 134" fill="none" xmlns="http://www.w3.org/2000/svg">
<path d="M109 133.613C145.79 133.613 175.613 103.79 175.613 67C175.613 30.2105 145.79 0.386719 109 0.386719C72.2105 0.386719 42.3867 30.2105 42.3867 67C42.3867 103.79 72.2105 133.613 109 133.613Z" fill="#2B2B2B"/>
<path opacity="0.4" d="M92.3667 106.424C92.1268 82.1939 88.9281 64.521 84.13 51.0064C83.8901 51.8061 83.7301 52.6058 83.5702 53.4054L83.4902 53.7253C83.4902 53.9652 83.4103 54.2051 83.4103 54.3651C83.4103 54.605 83.3303 54.7649 83.3303 54.9248V55.1647C83.3303 55.3247 83.3303 55.5646 83.2503 55.7245V56.1244V85.0728C83.1704 92.9096 86.7689 101.706 92.3667 106.424Z" fill="#F4F4F4"/>
<path opacity="0.4" d="M134.27 56.8441V56.4442C134.27 56.2043 134.27 55.8845 134.19 55.6446C134.19 55.4846 134.19 55.3247 134.11 55.1648C134.11 54.9249 134.03 54.605 134.03 54.3651V54.2851C134.03 54.0452 133.95 53.8853 133.95 53.6454C133.95 53.5654 133.95 53.4055 133.87 53.3255C133.71 52.5258 133.55 51.7261 133.31 51.0064V50.9265C128.512 64.441 125.313 82.114 125.073 106.344C130.671 101.626 134.27 92.9096 134.27 84.9928V57.8837C134.27 57.5638 134.27 57.1639 134.27 56.8441Z" fill="#F4F4F4"/>
<path opacity="0.4" d="M126.113 39.2511C124.993 38.2115 123.794 37.3319 122.594 36.4523L122.434 36.2923C122.194 36.1324 121.875 35.9724 121.635 35.8125L121.315 35.6526C121.075 35.4926 120.835 35.4127 120.515 35.2527L120.195 35.0928L119.476 34.693L119.076 34.533C118.836 34.4531 118.596 34.2931 118.356 34.2131L118.196 34.1332L117.876 34.0532L117.236 33.8133L116.997 33.7333L116.597 33.5734L116.037 33.4135L115.797 33.3335L115.397 33.2535C115.157 33.1736 114.997 33.1736 114.757 33.0936L114.518 33.0136L114.118 32.9337L113.478 32.7737H113.318L112.838 32.6938L112.119 32.6138H112.039L111.559 32.5338L110.679 32.4539H110.599H110.199H109.56V39.0912C111.159 39.4111 112.518 40.6906 112.518 42.2899V55.4846C112.518 57.084 111.079 58.3635 109.56 58.6833V62.9216C119.236 62.5218 126.913 53.9652 126.913 43.4894V40.1308C126.593 39.8109 126.353 39.571 126.113 39.2511Z" fill="#F4F4F4"/>
<path d="M105.002 55.5646V42.3699C105.002 40.7705 106.441 39.491 107.96 39.1712V32.5338H107.321H106.921L106.041 32.6138L105.561 32.6937H105.481L104.762 32.7737L104.282 32.8537H104.122L103.482 33.0136L103.082 33.0936L102.843 33.1736L102.123 33.3335L101.723 33.4135L101.483 33.4934L100.923 33.6534L100.523 33.8133L100.284 33.8933L99.6438 34.1332L99.3239 34.2131L99.164 34.2931L98.4443 34.613L98.0444 34.7729L97.3247 35.1728L96.9249 35.3327C96.685 35.4926 96.4451 35.5726 96.2052 35.7325L95.8853 35.8925C95.6454 36.0524 95.3255 36.2123 95.0856 36.3723L94.9257 36.5322C93.6462 37.3319 92.4467 38.2915 91.3271 39.2511C91.0872 39.571 90.8473 39.8109 90.6074 40.1308V43.4894C90.6074 53.9652 98.3643 62.5218 108.04 62.9216V58.6833C106.441 58.4434 105.002 57.1639 105.002 55.5646Z" fill="#776DEB"/>
<path d="M106.121 43.0896V54.765C106.121 56.2044 107.321 57.4039 108.76 57.4039C110.199 57.4039 111.399 56.2044 111.399 54.765V43.0896C111.399 41.6502 110.199 40.4507 108.76 40.4507C107.321 40.4507 106.121 41.6502 106.121 43.0896Z" fill="white"/>
<path opacity="0.65" d="M132.591 48.8473C131.951 47.168 131.151 45.5686 130.112 44.0492C129.952 43.7293 129.712 43.4894 129.552 43.1696C129.552 43.1696 129.552 43.1696 129.552 43.0896C129.312 42.7697 129.152 42.5298 128.912 42.2899C128.912 42.2899 128.912 42.2899 128.912 42.21C128.752 41.97 128.512 41.7301 128.272 41.4902L128.192 41.5702V43.5694C128.192 54.7649 120.036 63.8813 109.56 64.2811C109 64.2811 108.52 64.2811 108.04 64.2811C97.5646 63.8013 89.4079 54.7649 89.4079 43.5694V41.5702L89.3279 41.4902C89.088 41.7301 88.9281 41.97 88.6882 42.21C88.6882 42.21 88.6882 42.2099 88.6882 42.2899C88.4483 42.5298 88.2883 42.8497 88.0484 43.0896C88.0484 43.0896 88.0484 43.0896 88.0484 43.1696C87.8085 43.4894 87.6486 43.7293 87.4887 44.0492C86.529 45.5686 85.7294 47.168 85.0097 48.8473C85.0097 48.9273 85.0097 48.9273 84.9297 49.0072L85.4895 50.6066C90.4475 64.601 93.5662 82.7537 93.8061 106.424V107.464C98.0444 110.503 103.242 112.342 108.84 112.342C114.438 112.342 119.636 110.503 123.874 107.464V106.424C124.114 82.6737 127.233 64.521 132.191 50.6066L132.751 49.0072C132.591 48.9273 132.591 48.8473 132.591 48.8473Z" fill="#F4F4F4"/>
<path d="M220.26 78.543C221.148 77.9724 223.557 77.1482 224.064 76.2606C223.621 76.1338 222.733 76.324 222.289 76.3874C221.528 76.4508 220.768 76.5142 220.007 76.5142C218.676 76.5776 217.344 76.641 216.013 76.7044C213.921 76.7044 211.892 76.5776 209.8 76.5142C207.517 76.4508 205.172 76.2606 202.889 76.1338C201.495 76.0705 200.1 76.0071 198.705 75.9437C197.944 75.8803 195.789 76.0705 195.281 75.3731C194.711 74.6123 195.535 74.5489 196.106 74.5489C197.31 74.4855 198.515 74.5489 199.719 74.5489C202.255 74.5489 204.728 74.5489 207.264 74.4855C209.736 74.4221 212.209 74.4221 214.681 74.4221C217.027 74.4221 219.944 74.6757 222.226 74.1051C221.972 73.6613 220.894 73.2809 220.451 73.0273C219.753 72.5835 218.993 72.2031 218.295 71.7593C217.788 71.4423 217.027 70.8718 217.281 70.1744C217.471 69.6672 218.232 69.5404 218.739 69.6672C220.007 69.9842 221.402 71.2522 222.543 71.8861C223.938 72.6469 225.269 73.3443 226.664 74.0417C227.551 74.4855 228.502 75.2463 227.742 76.1972C227.108 77.0214 225.332 77.592 224.445 78.0358C223.24 78.6698 221.909 79.1136 220.704 79.6842C219.119 80.3182 219.373 79.494 220.26 78.543C220.451 78.4162 220.007 78.7966 220.26 78.543Z" fill="#666666"/>
<path d="M8.27466 42.2913C7.38708 41.7207 4.97793 40.8965 4.47074 40.0089C4.91453 39.8821 5.8021 40.0723 6.2459 40.1357C7.00668 40.1991 7.76747 40.2625 8.52825 40.2625C9.85962 40.3259 11.191 40.3893 12.5223 40.4527C14.6145 40.4527 16.6433 40.3259 18.7354 40.2625C21.0178 40.1991 23.3635 40.0089 25.6459 39.8821C27.0406 39.8187 28.4354 39.7553 29.8302 39.6919C30.5909 39.6285 32.7465 39.8187 33.2537 39.1214C33.8243 38.3606 33.0001 38.2972 32.4295 38.2972C31.2249 38.2338 30.0204 38.2972 28.8158 38.2972C26.2798 38.2972 23.8073 38.2972 21.2714 38.2338C18.7988 38.1704 16.3263 38.1704 13.8537 38.1704C11.508 38.1704 8.59165 38.424 6.3093 37.8534C6.56289 37.4096 7.64066 37.0292 8.08445 36.7756C8.78183 36.3318 9.54261 35.9514 10.24 35.5076C10.7472 35.1906 11.508 34.6201 11.2544 33.9227C11.0642 33.4155 10.3034 33.2887 9.79622 33.4155C8.52825 33.7325 7.13348 35.0005 5.99231 35.6344C4.59754 36.3952 3.26617 37.0926 1.8714 37.79C0.983818 38.2338 0.0328331 38.9946 0.793617 39.9455C1.4276 40.7697 3.20277 41.3403 4.09035 41.7841C5.29492 42.4181 6.62629 42.8619 7.83086 43.4325C9.41582 44.0664 9.16224 43.2423 8.27466 42.2913C8.08446 42.1645 8.52825 42.5449 8.27466 42.2913Z" fill="#666666"/>
</svg>
